<svg xmlns="http://www.w3.org/2000/svg" viewBox="0 0 800 440">
  <rect width="800" height="440" fill="#dbeafe"/>
  <circle cx="120" cy="70" r="100" fill="#bfdbfe"/>
  <circle cx="700" cy="390" r="130" fill="#bfdbfe"/>
  <!-- sun -->
  <circle cx="660" cy="90" r="45" fill="#fbbf24"/>
  <!-- person 1 -->
  <circle cx="280" cy="190" r="55" fill="#fca5a5"/>
  <circle cx="262" cy="180" r="7" fill="#1f2937"/>
  <circle cx="298" cy="180" r="7" fill="#1f2937"/>
  <path d="M260 208 Q280 226 300 208" fill="none" stroke="#1f2937" stroke-width="6" stroke-linecap="round"/>
  <rect x="235" y="250" width="90" height="120" rx="30" fill="#ef4444"/>
  <path d="M240 270 Q190 230 180 175" fill="none" stroke="#ef4444" stroke-width="26" stroke-linecap="round"/>
  <circle cx="178" cy="168" r="16" fill="#fca5a5"/>
  <!-- person 2 -->
  <circle cx="520" cy="190" r="55" fill="#fdba74"/>
  <circle cx="502" cy="180" r="7" fill="#1f2937"/>
  <circle cx="538" cy="180" r="7" fill="#1f2937"/>
  <path d="M500 208 Q520 226 540 208" fill="none" stroke="#1f2937" stroke-width="6" stroke-linecap="round"/>
  <rect x="475" y="250" width="90" height="120" rx="30" fill="#2563eb"/>
  <path d="M560 270 Q610 230 620 175" fill="none" stroke="#2563eb" stroke-width="26" stroke-linecap="round"/>
  <circle cx="622" cy="168" r="16" fill="#fdba74"/>
  <!-- speech bubbles -->
  <rect x="200" y="60" width="130" height="52" rx="26" fill="#ffffff"/>
  <text x="265" y="95" font-family="Arial, sans-serif" font-size="28" fill="#1f2937" text-anchor="middle" font-weight="bold">Hello!</text>
  <rect x="470" y="60" width="130" height="52" rx="26" fill="#ffffff"/>
  <text x="535" y="95" font-family="Arial, sans-serif" font-size="28" fill="#1f2937" text-anchor="middle" font-weight="bold">Hi!</text>
</svg>
